<?xml version="1.0" encoding="iso-8859-1"?>
<!-- Generator: Adobe Illustrator 19.0.0, SVG Export Plug-In . SVG Version: 6.00 Build 0)  -->
<svg xmlns="http://www.w3.org/2000/svg" xmlns:xlink="http://www.w3.org/1999/xlink" version="1.1" id="Layer_1" x="0px" y="0px" viewBox="0 0 436 436" style="enable-background:new 0 0 436 436;" xml:space="preserve" width="512" height="512">
<g>
	<g>
		<path style="fill:#F24125;" d="M393.453,27.76v380.48h-93.37v-65.16c0-27.86,12.21-52.88,31.57-69.98    c-53.26-23.7-90.4-77.07-90.4-139.11V27.76H393.453z"/>
		<path style="fill:#DD3B2A;" d="M331.652,273.099h22.196c-19.363,17.101-31.57,42.119-31.57,69.979v65.16h-22.196v-65.16    C300.081,315.218,312.289,290.2,331.652,273.099z"/>
		<path style="fill:#DD3B2A;" d="M272.961,27.764v106.222c0,62.042,37.141,115.417,90.399,139.113h-31.708    c-53.259-23.696-90.399-77.071-90.399-139.113V27.764H272.961z"/>
		<path style="fill:#F7B239;" d="M436,254.074c0-12.972-10.553-23.525-23.525-23.525s-23.525,10.553-23.525,23.525v14.525h-66.447    c-2.485,0-4.5,2.015-4.5,4.5s2.015,4.5,4.5,4.5h68.949l6.853,7.583c6.111,6.762,9.832,15.249,10.693,24.24    c0.22,2.297,2.161,4.041,4.469,4.041c2.649,0,4.742-2.279,4.489-4.916c-1.047-10.906-5.561-21.198-12.974-29.4l-1.399-1.548h8.893    C425.447,277.599,436,267.046,436,254.074z M397.951,254.074c0-8.009,6.516-14.525,14.525-14.525S427,246.065,427,254.074    s-6.516,14.525-14.525,14.525h-14.525V254.074z"/>
		<path style="fill:#DD3B2A;" d="M375.353,355.64v52.6h-10v-52.6c0-2.76,2.24-5,5-5C373.113,350.64,375.353,352.88,375.353,355.64z"/>
		<path style="fill:#DD3B2A;" d="M375.353,27.76v61.86c0,2.76-2.24,5-5,5c-2.76,0-5-2.24-5-5V27.76H375.353z"/>
		<path style="fill:#DD3B2A;" d="M315.113,27.76v51.89c0,2.76-2.24,5-5,5s-5-2.24-5-5V27.76H315.113z"/>
		<path style="fill:#DD3B2A;" d="M289.743,27.76v92.85c0,2.76-2.24,5-5,5s-5-2.24-5-5V27.76H289.743z"/>
		<path style="fill:#DD3B2A;" d="M352.103,372.25v35.99h-10v-35.99c0-2.76,2.24-5,5-5C349.863,367.25,352.103,369.49,352.103,372.25    z"/>
	</g>
	<g>
		<path style="fill:#F24125;" d="M42.547,27.76v380.48h93.37v-65.16c0-27.86-12.21-52.88-31.57-69.98    c53.26-23.7,90.4-77.07,90.4-139.11V27.76H42.547z"/>
		<path style="fill:#DD3B2A;" d="M104.348,273.099H82.153c19.363,17.101,31.571,42.119,31.571,69.979v65.16h22.196v-65.16    C135.919,315.218,123.711,290.2,104.348,273.099z"/>
		<path style="fill:#DD3B2A;" d="M163.04,27.764v106.222c0,62.042-37.141,115.417-90.399,139.113h31.708    c53.259-23.696,90.399-77.071,90.399-139.113V27.764H163.04z"/>
		<path style="fill:#F7B239;" d="M23.525,277.599h8.893l-1.399,1.548c-7.412,8.202-11.927,18.494-12.974,29.4    c-0.253,2.637,1.84,4.916,4.489,4.916c2.307,0,4.249-1.745,4.469-4.041c0.861-8.991,4.582-17.478,10.693-24.24l6.853-7.583h68.949    c2.485,0,4.5-2.015,4.5-4.5s-2.015-4.5-4.5-4.5H47.05v-14.525c0-12.972-10.553-23.525-23.525-23.525S0,241.103,0,254.074    S10.553,277.599,23.525,277.599z M38.05,268.599H23.525C15.516,268.599,9,262.084,9,254.074s6.516-14.525,14.525-14.525    s14.525,6.516,14.525,14.525V268.599z"/>
		<path style="fill:#DD3B2A;" d="M60.647,355.64v52.6h10v-52.6c0-2.76-2.24-5-5-5C62.887,350.64,60.647,352.88,60.647,355.64z"/>
		<path style="fill:#DD3B2A;" d="M60.647,27.76v61.86c0,2.76,2.24,5,5,5c2.76,0,5-2.24,5-5V27.76H60.647z"/>
		<path style="fill:#DD3B2A;" d="M120.887,27.76v51.89c0,2.76,2.24,5,5,5s5-2.24,5-5V27.76H120.887z"/>
		<path style="fill:#DD3B2A;" d="M146.257,27.76v92.85c0,2.76,2.24,5,5,5s5-2.24,5-5V27.76H146.257z"/>
		<path style="fill:#DD3B2A;" d="M83.897,372.25v35.99h10v-35.99c0-2.76-2.24-5-5-5C86.137,367.25,83.897,369.49,83.897,372.25z"/>
	</g>
</g>















</svg>
