<?xml version="1.0" encoding="iso-8859-1"?>
<!-- Generator: Adobe Illustrator 19.0.0, SVG Export Plug-In . SVG Version: 6.00 Build 0)  -->
<svg version="1.1" id="Layer_1" xmlns="http://www.w3.org/2000/svg" xmlns:xlink="http://www.w3.org/1999/xlink" x="0px" y="0px"
	 viewBox="0 0 218.156 218.156" style="enable-background:new 0 0 218.156 218.156;" xml:space="preserve">
<g>
	<circle style="fill:#FF5243;" cx="109.078" cy="109.078" r="109.078"/>
	<g>
		<path style="fill:#0F2F45;" d="M128.01,87.437c0,10.456-8.475,18.932-18.932,18.932l0,0c-10.456,0-18.932-8.476-18.932-18.932
			v-3.323c0-10.456,8.476-18.932,18.932-18.932l0,0c10.456,0,18.932,8.476,18.932,18.932V87.437z"/>
		<g>
			<g>
				<path style="fill:#FFFFFF;" d="M39.24,83.88c0,2.029-1.644,3.674-3.673,3.674l0,0c-2.029,0-3.674-1.645-3.674-3.674v-5.691
					c0-2.029,1.644-3.673,3.674-3.673l0,0c2.029,0,3.673,1.645,3.673,3.673V83.88z"/>
				<path style="fill:#0F2F45;" d="M28.983,123.882c0,3.695,2.996,6.69,6.69,6.69h24.785c3.695,0,6.691-2.995,6.691-6.69l0,0
					c0-3.696-2.996-6.691-6.691-6.691H35.673C31.979,117.191,28.983,120.186,28.983,123.882L28.983,123.882z"/>
				<path style="fill:#0F2F45;" d="M28.876,84.621v39.091c0,3.694,2.995,6.689,6.69,6.689l0,0c3.695,0,6.69-2.995,6.69-6.689V84.621
					H28.876z"/>
				<path style="fill:#154361;" d="M46.133,82.261c0,1.405-1.14,2.544-2.545,2.544H27.546c-1.405,0-2.545-1.139-2.545-2.544l0,0
					c0-1.406,1.14-2.545,2.545-2.545h16.041C44.993,79.716,46.133,80.855,46.133,82.261L46.133,82.261z"/>
			</g>
			<g>
				<path style="fill:#FFFFFF;" d="M178.917,83.88c0,2.029,1.643,3.674,3.673,3.674l0,0c2.029,0,3.674-1.645,3.674-3.674v-5.691
					c0-2.029-1.644-3.673-3.674-3.673l0,0c-2.029,0-3.673,1.645-3.673,3.673V83.88z"/>
				<path style="fill:#0F2F45;" d="M189.173,123.882c0,3.695-2.995,6.69-6.689,6.69h-24.786c-3.694,0-6.689-2.995-6.689-6.69l0,0
					c0-3.696,2.995-6.691,6.689-6.691h24.786C186.178,117.191,189.173,120.186,189.173,123.882L189.173,123.882z"/>
				<path style="fill:#0F2F45;" d="M189.282,84.621v39.091c0,3.694-2.996,6.689-6.691,6.689l0,0c-3.695,0-6.69-2.995-6.69-6.689
					V84.621H189.282z"/>
				<path style="fill:#154361;" d="M172.025,82.261c0,1.405,1.139,2.544,2.544,2.544h16.042c1.405,0,2.545-1.139,2.545-2.544l0,0
					c0-1.406-1.14-2.545-2.545-2.545h-16.042C173.164,79.716,172.025,80.855,172.025,82.261L172.025,82.261z"/>
			</g>
		</g>
		<path style="fill:#154361;" d="M144.733,103.391c0,9.729-7.887,17.616-17.615,17.616H91.039c-9.729,0-17.616-7.887-17.616-17.616
			l0,0c0-9.729,7.888-17.616,17.616-17.616h36.078C136.846,85.775,144.733,93.662,144.733,103.391L144.733,103.391z"/>
		<path style="fill:#206591;" d="M163.386,124.969c0,15.498-12.564,28.061-28.062,28.061H82.832
			c-15.498,0-28.061-12.563-28.061-28.061l0,0c0-15.498,1.922-28.062,21.371-28.062h65.874
			C161.463,96.908,163.386,109.472,163.386,124.969L163.386,124.969z"/>
		<path style="fill:#195175;" d="M57.533,137.125c4.53,9.41,14.157,15.904,25.299,15.904h52.493c11.143,0,20.77-6.494,25.299-15.904
			H57.533z"/>
		<circle style="fill:#0F2F45;" cx="109.079" cy="124.969" r="32.617"/>
		<circle style="fill:#34A4ED;" cx="109.079" cy="124.969" r="25.678"/>
		<path style="fill:#FFFFFF;" d="M134.462,121.14c-0.464-3.096-1.47-6.016-2.936-8.646c-11.642,11.642-23.282,23.282-34.924,34.925
			c2.63,1.465,5.55,2.471,8.646,2.934C114.987,140.614,124.725,130.877,134.462,121.14z"/>
		<path style="fill:#FFFFFF;" d="M120.273,101.859c-3.004-1.458-6.332-2.352-9.851-2.534c-8.996,8.996-17.991,17.992-26.987,26.988
			c0.182,3.517,1.076,6.845,2.534,9.849C97.403,124.729,108.838,113.294,120.273,101.859z"/>
	</g>
</g>
<g>
</g>
<g>
</g>
<g>
</g>
<g>
</g>
<g>
</g>
<g>
</g>
<g>
</g>
<g>
</g>
<g>
</g>
<g>
</g>
<g>
</g>
<g>
</g>
<g>
</g>
<g>
</g>
<g>
</g>
</svg>
