<?xml version="1.0" encoding="iso-8859-1"?>
<!-- Generator: Adobe Illustrator 19.0.0, SVG Export Plug-In . SVG Version: 6.00 Build 0)  -->
<svg xmlns="http://www.w3.org/2000/svg" xmlns:xlink="http://www.w3.org/1999/xlink" version="1.1" id="Capa_1" x="0px" y="0px" viewBox="0 0 505 505" style="enable-background:new 0 0 505 505;" xml:space="preserve" width="512" height="512">
<g>
	<rect x="7.5" y="202.27" style="fill:#B1DCEE;" width="490" height="268.27"/>
	<polyline style="fill:#FFA317;" points="52.837,202.27 7.5,202.27 7.5,103.754 497.5,103.754 497.5,202.27 72.839,202.27  "/>
	<circle style="fill:#5A9DEE;" cx="143.622" cy="336.405" r="81.083"/>
	<circle style="fill:#5A9DEE;" cx="361.378" cy="336.405" r="81.082"/>
	<rect x="125.497" y="34.461" style="fill:#5A9DEE;" width="254.006" height="34.646"/>
	<g>
		<path style="fill:#214245;" d="M446.341,96.254V26.961h-59.338H117.997H58.659v69.293H0v98.516v15v268.27h505V209.77v-15V96.254    H446.341z M372.003,41.961v19.647H132.997V41.961H372.003z M73.659,41.961h44.338v34.646h269.006V41.961h44.338v54.293H73.659    V41.961z M490,463.039H15V209.77h37.837h20.002H490V463.039z M365.643,194.77v-37.268h-15v37.268h-20.214v-37.268h-15v37.268    h-20.214v-37.268h-15v37.268H260v-37.268h-15v37.268h-20.214v-37.268h-15v37.268h-20.214v-37.268h-15v37.268h-20.214v-37.268h-15    v37.268H72.839H52.837H15v-83.516h475v83.516H365.643z"/>
		<path style="fill:#214245;" d="M143.621,424.987c48.845,0,88.583-39.738,88.583-88.582c0-48.845-39.738-88.583-88.583-88.583    c-48.844,0-88.582,39.738-88.582,88.583C55.039,385.249,94.777,424.987,143.621,424.987z M143.621,262.822    c40.574,0,73.583,33.009,73.583,73.583c0,40.573-33.009,73.582-73.583,73.582c-40.573,0-73.582-33.009-73.582-73.582    C70.039,295.831,103.048,262.822,143.621,262.822z"/>
		<path style="fill:#214245;" d="M361.379,424.987c48.844,0,88.582-39.738,88.582-88.582c0-48.845-39.738-88.583-88.582-88.583    c-48.845,0-88.583,39.738-88.583,88.583C272.796,385.249,312.534,424.987,361.379,424.987z M361.379,262.822    c40.573,0,73.582,33.009,73.582,73.583c0,40.573-33.009,73.582-73.582,73.582c-40.574,0-73.583-33.009-73.583-73.582    C287.796,295.831,320.805,262.822,361.379,262.822z"/>
		<path style="fill:#214245;" d="M187.204,336.405h15c0-32.303-26.28-58.583-58.583-58.583v15    C167.653,292.822,187.204,312.373,187.204,336.405z"/>
		<path style="fill:#214245;" d="M404.961,336.405h15c0-32.303-26.28-58.583-58.582-58.583v15    C385.41,292.822,404.961,312.373,404.961,336.405z"/>
	</g>
</g>















</svg>
